{
    "asset" : {
        "generator" : "Khronos glTF Blender I/O v1.1.46",
        "version" : "2.0"
    },
    "scene" : 0,
    "scenes" : [
        {
            "name" : "Scene",
            "nodes" : [
                0
            ]
        }
    ],
    "nodes" : [
        {
            "mesh" : 0,
            "name" : "hall",
            "translation" : [
                -3.418994903564453,
                0.49220409989356995,
                0.061171531677246094
            ]
        }
    ],
    "materials" : [
        {
            "doubleSided" : true,
            "name" : "wall",
            "pbrMetallicRoughness" : {}
        },
        {
            "doubleSided" : true,
            "name" : "floor",
            "pbrMetallicRoughness" : {}
        }
    ],
    "meshes" : [
        {
            "name" : "hall",
            "primitives" : [
                {
                    "attributes" : {
                        "POSITION" : 0,
                        "NORMAL" : 1,
                        "TEXCOORD_0" : 2
                    },
                    "indices" : 3,
                    "material" : 0
                },
                {
                    "attributes" : {
                        "POSITION" : 4,
                        "NORMAL" : 5,
                        "TEXCOORD_0" : 6
                    },
                    "indices" : 7,
                    "material" : 1
                }
            ]
        }
    ],
    "accessors" : [
        {
            "bufferView" : 0,
            "componentType" : 5126,
            "count" : 729,
            "max" : [
                13.691877365112305,
                6.4908928871154785,
                7.579037666320801
            ],
            "min" : [
                -5.091365337371826,
                -0.5023161172866821,
                -7.276858806610107
            ],
            "type" : "VEC3"
        },
        {
            "bufferView" : 1,
            "componentType" : 5126,
            "count" : 729,
            "type" : "VEC3"
        },
        {
            "bufferView" : 2,
            "componentType" : 5126,
            "count" : 729,
            "type" : "VEC2"
        },
        {
            "bufferView" : 3,
            "componentType" : 5123,
            "count" : 1149,
            "type" : "SCALAR"
        },
        {
            "bufferView" : 4,
            "componentType" : 5126,
            "count" : 8,
            "max" : [
                11.719653129577637,
                -0.49220412969589233,
                6.648099422454834
            ],
            "min" : [
                -2.260390043258667,
                -0.4922041594982147,
                -7.276858806610107
            ],
            "type" : "VEC3"
        },
        {
            "bufferView" : 5,
            "componentType" : 5126,
            "count" : 8,
            "type" : "VEC3"
        },
        {
            "bufferView" : 6,
            "componentType" : 5126,
            "count" : 8,
            "type" : "VEC2"
        },
        {
            "bufferView" : 7,
            "componentType" : 5123,
            "count" : 18,
            "type" : "SCALAR"
        }
    ],
    "bufferViews" : [
        {
            "buffer" : 0,
            "byteLength" : 8748,
            "byteOffset" : 0
        },
        {
            "buffer" : 0,
            "byteLength" : 8748,
            "byteOffset" : 8748
        },
        {
            "buffer" : 0,
            "byteLength" : 5832,
            "byteOffset" : 17496
        },
        {
            "buffer" : 0,
            "byteLength" : 2298,
            "byteOffset" : 23328
        },
        {
            "buffer" : 0,
            "byteLength" : 96,
            "byteOffset" : 25628
        },
        {
            "buffer" : 0,
            "byteLength" : 96,
            "byteOffset" : 25724
        },
        {
            "buffer" : 0,
            "byteLength" : 64,
            "byteOffset" : 25820
        },
        {
            "buffer" : 0,
            "byteLength" : 36,
            "byteOffset" : 25884
        }
    ],
    "buffers" : [
        {
            "byteLength" : 25920,
            "uri" : "data:application/octet-stream;base64,"
        }
    ]
}
